<svg xmlns="http://www.w3.org/2000/svg" width="469.619" height="138.617" viewBox="0 0 469.619 138.617"><defs><style>.a{fill:#282c3a;}.b{fill:#fe7500;}.c,.e,.g{fill:#fff;}.c{font-size:68px;letter-spacing:0.025em;}.c,.e{font-family:ProximaNova-Bold, Proxima Nova;font-weight:700;}.d{opacity:0.299;}.e{font-size:67px;letter-spacing:0.298em;}.f{font-size:53px;}</style></defs><g transform="translate(-1682 -124.73)"><g transform="translate(2054.413 145.178)"><rect class="a" width="97.206" height="118.17" rx="19" transform="translate(0 0)"/><g transform="translate(23.067 29.095)"><g transform="translate(0)"><path class="b" d="M158.784,2.369a21.328,21.328,0,0,0-19.542,0,1.243,1.243,0,0,0-.46,1.5.879.879,0,0,0,1.244.555,19.758,19.758,0,0,1,17.98,0,.792.792,0,0,0,.388.1.947.947,0,0,0,.855-.664A1.241,1.241,0,0,0,158.784,2.369Z" transform="translate(-138.697 0)"/></g></g><g transform="translate(20.041 33.629)"><g transform="translate(0)"><path class="b" d="M122.473,49.8c-3.607-4.67-8.136-7.138-13.095-7.138-4.94,0-9.465,2.468-13.084,7.136a1.367,1.367,0,0,0,.007,1.6.764.764,0,0,0,1.258-.009c3.28-4.23,7.365-6.465,11.819-6.465,4.472,0,8.563,2.235,11.826,6.462a.762.762,0,0,0,1.258.011A1.361,1.361,0,0,0,122.473,49.8Z" transform="translate(-96.037 -42.666)"/></g></g><g transform="translate(28 38.684)"><g transform="translate(0)"><path class="b" d="M207.676,85.333a13.427,13.427,0,0,0-3.949.594,1.168,1.168,0,0,0-.679,1.378.941.941,0,0,0,1.141.818,11.894,11.894,0,0,1,3.487-.524c7.759,0,14.07,7.625,14.07,17a.955.955,0,1,0,1.876,0C223.622,93.976,216.468,85.333,207.676,85.333Z" transform="translate(-203.018 -85.333)"/></g></g><g transform="translate(18.163 41.231)"><path class="b" d="M83.907,108.954a.856.856,0,0,0-1.283-.406,16.807,16.807,0,0,0-3.3,3.105,21.809,21.809,0,0,0-4.634,13.542,1.056,1.056,0,0,0,.925,1.149h.015a1.044,1.044,0,0,0,.936-1.115,19.3,19.3,0,0,1,4.092-11.984,14.824,14.824,0,0,1,2.915-2.74A1.272,1.272,0,0,0,83.907,108.954Z" transform="translate(-74.688 -108.394)"/></g><g transform="translate(19.512 43.636)"><g transform="translate(0)"><path class="b" d="M113.81,133.062A11.436,11.436,0,0,0,104.618,128a11.132,11.132,0,0,0-8.639,4.364,16.818,16.818,0,0,0-3.553,10.708,22.688,22.688,0,0,1-1.754,8.172l-.527,1.133a1.268,1.268,0,0,0,.358,1.544.811.811,0,0,0,.46.147.922.922,0,0,0,.818-.578l.553-1.192a25.145,25.145,0,0,0,1.968-9.285,14.261,14.261,0,0,1,3.009-9.056,9.416,9.416,0,0,1,7.307-3.69,9.672,9.672,0,0,1,7.778,4.286.832.832,0,0,0,1.324.109A1.307,1.307,0,0,0,113.81,133.062Z" transform="translate(-90.024 -128)"/></g></g><g transform="translate(42.334 53.068)"><path class="b" d="M370.283,232.128l-1.058-4.182a50.787,50.787,0,0,1-.677-8.283l-.009-.6a17.436,17.436,0,0,0-.7-4.905.9.9,0,0,0-1.2-.689,1.206,1.206,0,0,0-.57,1.446,14.79,14.79,0,0,1,.587,4.178l.011.617a53.181,53.181,0,0,0,.739,8.809l1.073,4.271a.976.976,0,0,0,.9.8.838.838,0,0,0,.274-.048A1.19,1.19,0,0,0,370.283,232.128Z" transform="translate(-366.021 -213.403)"/></g><g transform="translate(21.357 49.187)"><path class="b" d="M133.512,199.169l-.82-3.375a72.861,72.861,0,0,1-1.773-14.927c0-5.624-3.559-10.2-7.932-10.2s-7.931,4.647-7.931,10.4a31.923,31.923,0,0,1-3.89,14.4,1.35,1.35,0,0,0,.22,1.578.768.768,0,0,0,1.227-.283,34.3,34.3,0,0,0,4.206-15.727c0-4.463,2.768-8.092,6.168-8.092s6.17,3.559,6.17,7.961a74.523,74.523,0,0,0,1.856,15.584l.814,3.362a.937.937,0,0,0,.843.8.727.727,0,0,0,.263-.05A1.22,1.22,0,0,0,133.512,199.169Z" transform="translate(-111.008 -170.667)"/></g><g transform="translate(23.018 53.721)"><g transform="translate(0)"><path class="b" d="M150.495,219c0-3.124-2.1-5.667-4.69-5.667s-4.69,2.543-4.69,5.71a35.685,35.685,0,0,1-5.739,18.646,1.3,1.3,0,0,0,.173,1.589.835.835,0,0,0,1.315-.209A38.522,38.522,0,0,0,142.989,219a3.153,3.153,0,0,1,2.814-3.4c1.551,0,2.814,1.525,2.816,3.425a46.617,46.617,0,0,1-7.292,24.218,1.3,1.3,0,0,0,.171,1.589.843.843,0,0,0,.572.236.886.886,0,0,0,.743-.442A49.321,49.321,0,0,0,150.495,219Z" transform="translate(-135.182 -213.334)"/></g></g><g transform="translate(32.141 57.415)"><g transform="translate(0)"><path class="b" d="M243.97,257.085a1,1,0,0,0-.977-1.081,1.073,1.073,0,0,0-.9,1.181,29.057,29.057,0,0,1-.3,4.3,1.132,1.132,0,0,0,.778,1.3.866.866,0,0,0,.15.014,1.011,1.011,0,0,0,.925-.952A30.6,30.6,0,0,0,243.97,257.085Z" transform="translate(-241.788 -256.001)"/></g></g><g transform="translate(25.559 67.353)"><g transform="translate(0)"><path class="b" d="M171.345,341.682a.925.925,0,0,0-1.167.764,42.333,42.333,0,0,1-5.795,13.3,1.3,1.3,0,0,0,.148,1.594.833.833,0,0,0,.585.247.884.884,0,0,0,.734-.426,44.8,44.8,0,0,0,6.129-14.072A1.187,1.187,0,0,0,171.345,341.682Z" transform="translate(-164.179 -341.634)"/></g></g><g transform="translate(32.9 72.471)"><path class="b" d="M261.734,398.309l-1.131-4.341c-.45-1.628-.87-3.348-.872-3.355a.993.993,0,0,0-.846-.811.923.923,0,0,0-.917.689,93.552,93.552,0,0,1-4.506,10.552,1.281,1.281,0,0,0,.289,1.564.817.817,0,0,0,.5.177.908.908,0,0,0,.792-.526,83.786,83.786,0,0,0,3.626-8.135c.049.181.1.365.15.546l1.124,4.32a.916.916,0,0,0,1.176.741A1.193,1.193,0,0,0,261.734,398.309Z" transform="translate(-253.314 -389.799)"/></g><path class="b" d="M44.835,102.868,24.848,91.123C13.237,84.315,5.986,71,6,56.5V10.133C6,6.2,8.9,3,12.473,3H77.2c3.573,0,6.469,3.2,6.473,7.133V56.5c.014,14.5-7.237,27.814-18.848,34.622ZM12.473,10.133V56.5C12.462,68.361,18.4,79.259,27.9,84.828l16.939,9.955,16.939-9.951c9.5-5.57,15.436-16.469,15.424-28.331V10.133Z" transform="translate(3.768 10.319)"/><path class="b" d="M24,87.621V9H51.28V53.068c0,10.532-4.849,20.21-12.616,25.176Z" transform="translate(26.973 14.149)"/></g><text class="c" transform="translate(1917.573 245.287)"><tspan x="0" y="0">APP</tspan></text><g class="d"><text class="e" transform="translate(1682 186.731)"><tspan x="0" y="0">R</tspan><tspan class="f" y="0">EGISTER</tspan></text><path class="g" d="M130.357,1.689a20.272,20.272,0,0,1-13.966-5.265,18.014,18.014,0,0,1-4.282-6.12,20.139,20.139,0,0,1-1.567-7.953,20.157,20.157,0,0,1,1.567-7.968,17.862,17.862,0,0,1,4.284-6.1,20.338,20.338,0,0,1,13.964-5.217,17.523,17.523,0,0,1,15.468,8.2l.585.907L138.4-23.488l-.505-.766a8.981,8.981,0,0,0-7.539-4c-5.839,0-10.077,4.461-10.077,10.607s4.238,10.607,10.077,10.607a11.111,11.111,0,0,0,6.632-2.17v-2.826h-9.434V-20.5h18.854v14.9l-.255.285A20.644,20.644,0,0,1,130.357,1.689Zm0-36.623c-10.323,0-17.815,7.269-17.815,17.285,0,10.046,7.492,17.338,17.815,17.338a18.682,18.682,0,0,0,14.052-6.065V-18.5H129.555v4.466h9.434V-8.3l-.332.3a11.521,11.521,0,0,1-3.489,2.057,13.568,13.568,0,0,1-4.81.9,11.813,11.813,0,0,1-8.668-3.61,12.924,12.924,0,0,1-3.409-9,12.924,12.924,0,0,1,3.409-9,11.813,11.813,0,0,1,8.668-3.61,11.136,11.136,0,0,1,5.453,1.42,11.005,11.005,0,0,1,3.215,2.735l4.505-2.444A15.584,15.584,0,0,0,130.357-34.934Zm79.712,36.57A24.733,24.733,0,0,1,200.908.008a19.237,19.237,0,0,1-6.545-4.283l-.6-.6,5.335-7.387.83.865A14.456,14.456,0,0,0,210.44-6.936c3.537,0,5.148-1.542,5.148-2.975,0-1.734-2.058-2.52-6.383-3.531l-.234-.054c-2.939-.673-6.27-1.436-8.932-3.074a10.125,10.125,0,0,1-3.441-3.36,10.107,10.107,0,0,1-1.361-5.3,10.667,10.667,0,0,1,3.944-8.3,16.082,16.082,0,0,1,10.465-3.352,23.691,23.691,0,0,1,8.023,1.311,18.762,18.762,0,0,1,6.436,3.884l.667.616-5.4,7.113-.809-.749a14.006,14.006,0,0,0-9.444-3.6,5.643,5.643,0,0,0-3.281.816,2.108,2.108,0,0,0-.913,1.788c0,1.529,2.369,2.194,6.271,3.106h0c2.828.643,6.347,1.443,9.112,3.137a10.4,10.4,0,0,1,3.519,3.406,10.1,10.1,0,0,1,1.4,5.35,11.308,11.308,0,0,1-3.844,8.852A13.353,13.353,0,0,1,216.6.727,21.848,21.848,0,0,1,210.069,1.636ZM196.392-5.1c3.469,3.146,8.066,4.74,13.677,4.74,8.235,0,13.151-3.866,13.151-10.342,0-7.108-6.915-8.68-12.472-9.943h-.006a26.911,26.911,0,0,1-5.261-1.577,5.139,5.139,0,0,1-1.808-1.337,3.306,3.306,0,0,1-.752-2.141,4.116,4.116,0,0,1,1.737-3.406,7.463,7.463,0,0,1,4.457-1.2,16.148,16.148,0,0,1,9.968,3.42l2.982-3.925a18.882,18.882,0,0,0-12.42-4.067c-7.306,0-12.409,3.969-12.409,9.653a7.518,7.518,0,0,0,3.85,6.954c2.382,1.465,5.543,2.189,8.331,2.828l.239.055a23.465,23.465,0,0,1,5.352,1.707,4.183,4.183,0,0,1,2.58,3.773,4.365,4.365,0,0,1-1.936,3.552,8.831,8.831,0,0,1-5.212,1.424,16.473,16.473,0,0,1-6.93-1.5,16.735,16.735,0,0,1-4.171-2.746ZM368.436,1H357.453L350.51-11.667h-3.92V1h-9.526V-36.351H354.6a13,13,0,0,1,9.4,3.522,11.316,11.316,0,0,1,2.582,3.956,13.461,13.461,0,0,1,.887,4.917,12.047,12.047,0,0,1-2.673,7.9,10.932,10.932,0,0,1-4.556,3.182Zm-9.8-2h6.295l-7.75-13.123,1.322-.312c3.368-.8,6.968-3.714,6.968-9.521,0-6.315-4.267-10.4-10.872-10.4H339.064V-1h5.526V-13.667h7.1Zm-41.25,2H290.371V-36.351h27.016v8.466H299.9V-22.2h17.119v8.466H299.9v6.215h17.49ZM292.371-1h23.016V-5.519H297.9V-15.734h17.119V-20.2H297.9v-9.685h17.49v-4.466H292.371Zm-30.9,2h-9.579V-27.726H241.558v-8.625h30.2v8.625H261.472Zm-7.579-2h5.579V-29.726h10.282v-4.625h-26.2v4.625h10.335ZM175.718,1h-9.526V-36.351h9.526Zm-7.526-2h5.526V-34.351h-5.526ZM92.561,1H65.545V-36.351H92.561v8.466H75.071V-22.2H92.19v8.466H75.071v6.215h17.49ZM67.545-1H90.561V-5.519H73.071V-15.734H90.19V-20.2H73.071v-9.685h17.49v-4.466H67.545ZM42.354,1H29.089L20.312-15.013H14.936V1H3.422V-45.689h21.9a16.182,16.182,0,0,1,11.7,4.376,14.042,14.042,0,0,1,3.2,4.909,16.754,16.754,0,0,1,1.1,6.119,16.688,16.688,0,0,1-.907,5.582,13.561,13.561,0,0,1-2.41,4.233,13.567,13.567,0,0,1-5.948,4.052ZM30.273-1H38.85L29-17.679l1.322-.312c4.357-1.029,9.012-4.8,9.012-12.293,0-8.018-5.629-13.405-14.008-13.405H5.422V-1h7.514V-17.013H21.5ZM353.487-18.133h-8.9V-29.885h8.9a6.625,6.625,0,0,1,4.45,1.58,5.666,5.666,0,0,1,1.85,4.3,5.666,5.666,0,0,1-1.85,4.3A6.625,6.625,0,0,1,353.487-18.133Zm-6.9-2h6.9c2.572,0,4.3-1.558,4.3-3.876s-1.728-3.876-4.3-3.876h-6.9ZM23.919-23.187H12.936V-37.515H23.919a8.112,8.112,0,0,1,5.449,1.93,6.9,6.9,0,0,1,2.251,5.234,6.9,6.9,0,0,1-2.251,5.234A8.112,8.112,0,0,1,23.919-23.187Zm-8.983-2h8.983c3.409,0,5.7-2.075,5.7-5.164s-2.291-5.164-5.7-5.164H14.936Z" transform="translate(1682 186.731)"/></g></g></svg>