<svg xmlns="http://www.w3.org/2000/svg" width="471.619" height="140.617" viewBox="0 0 471.619 140.617">
  <g id="Grupo_3547" data-name="Grupo 3547" transform="translate(-1680 -122.73)">
    <g id="Grupo_3550" data-name="Grupo 3550">
      <g id="Grupo_3544" data-name="Grupo 3544" transform="translate(2054.413 145.178)">
        <rect id="Rectángulo_1113" data-name="Rectángulo 1113" width="97.206" height="118.17" rx="19" transform="translate(0 0)" fill="#282c3a"/>
        <g id="Grupo_3501" data-name="Grupo 3501" transform="translate(23.067 29.095)">
          <g id="Grupo_3500" data-name="Grupo 3500" transform="translate(0)">
            <path id="Trazado_3137" data-name="Trazado 3137" d="M158.784,2.369a21.328,21.328,0,0,0-19.542,0,1.243,1.243,0,0,0-.46,1.5.879.879,0,0,0,1.244.555,19.758,19.758,0,0,1,17.98,0,.792.792,0,0,0,.388.1.947.947,0,0,0,.855-.664A1.241,1.241,0,0,0,158.784,2.369Z" transform="translate(-138.697 0)" fill="#fe7500"/>
          </g>
        </g>
        <g id="Grupo_3503" data-name="Grupo 3503" transform="translate(20.041 33.629)">
          <g id="Grupo_3502" data-name="Grupo 3502" transform="translate(0)">
            <path id="Trazado_3138" data-name="Trazado 3138" d="M122.473,49.8c-3.607-4.67-8.136-7.138-13.095-7.138-4.94,0-9.465,2.468-13.084,7.136a1.367,1.367,0,0,0,.007,1.6.764.764,0,0,0,1.258-.009c3.28-4.23,7.365-6.465,11.819-6.465,4.472,0,8.563,2.235,11.826,6.462a.762.762,0,0,0,1.258.011A1.361,1.361,0,0,0,122.473,49.8Z" transform="translate(-96.037 -42.666)" fill="#fe7500"/>
          </g>
        </g>
        <g id="Grupo_3505" data-name="Grupo 3505" transform="translate(28 38.684)">
          <g id="Grupo_3504" data-name="Grupo 3504" transform="translate(0)">
            <path id="Trazado_3139" data-name="Trazado 3139" d="M207.676,85.333a13.427,13.427,0,0,0-3.949.594,1.168,1.168,0,0,0-.679,1.378.941.941,0,0,0,1.141.818,11.894,11.894,0,0,1,3.487-.524c7.759,0,14.07,7.625,14.07,17a.955.955,0,1,0,1.876,0C223.622,93.976,216.468,85.333,207.676,85.333Z" transform="translate(-203.018 -85.333)" fill="#fe7500"/>
          </g>
        </g>
        <g id="Grupo_3507" data-name="Grupo 3507" transform="translate(18.163 41.231)">
          <g id="Grupo_3506" data-name="Grupo 3506">
            <path id="Trazado_3140" data-name="Trazado 3140" d="M83.907,108.954a.856.856,0,0,0-1.283-.406,16.807,16.807,0,0,0-3.3,3.105,21.809,21.809,0,0,0-4.634,13.542,1.056,1.056,0,0,0,.925,1.149h.015a1.044,1.044,0,0,0,.936-1.115,19.3,19.3,0,0,1,4.092-11.984,14.824,14.824,0,0,1,2.915-2.74A1.272,1.272,0,0,0,83.907,108.954Z" transform="translate(-74.688 -108.394)" fill="#fe7500"/>
          </g>
        </g>
        <g id="Grupo_3509" data-name="Grupo 3509" transform="translate(19.512 43.636)">
          <g id="Grupo_3508" data-name="Grupo 3508" transform="translate(0)">
            <path id="Trazado_3141" data-name="Trazado 3141" d="M113.81,133.062A11.436,11.436,0,0,0,104.618,128a11.132,11.132,0,0,0-8.639,4.364,16.818,16.818,0,0,0-3.553,10.708,22.688,22.688,0,0,1-1.754,8.172l-.527,1.133a1.268,1.268,0,0,0,.358,1.544.811.811,0,0,0,.46.147.922.922,0,0,0,.818-.578l.553-1.192a25.145,25.145,0,0,0,1.968-9.285,14.261,14.261,0,0,1,3.009-9.056,9.416,9.416,0,0,1,7.307-3.69,9.672,9.672,0,0,1,7.778,4.286.832.832,0,0,0,1.324.109A1.307,1.307,0,0,0,113.81,133.062Z" transform="translate(-90.024 -128)" fill="#fe7500"/>
          </g>
        </g>
        <g id="Grupo_3511" data-name="Grupo 3511" transform="translate(42.334 53.068)">
          <g id="Grupo_3510" data-name="Grupo 3510">
            <path id="Trazado_3142" data-name="Trazado 3142" d="M370.283,232.128l-1.058-4.182a50.787,50.787,0,0,1-.677-8.283l-.009-.6a17.436,17.436,0,0,0-.7-4.905.9.9,0,0,0-1.2-.689,1.206,1.206,0,0,0-.57,1.446,14.79,14.79,0,0,1,.587,4.178l.011.617a53.181,53.181,0,0,0,.739,8.809l1.073,4.271a.976.976,0,0,0,.9.8.838.838,0,0,0,.274-.048A1.19,1.19,0,0,0,370.283,232.128Z" transform="translate(-366.021 -213.403)" fill="#fe7500"/>
          </g>
        </g>
        <g id="Grupo_3513" data-name="Grupo 3513" transform="translate(21.357 49.187)">
          <g id="Grupo_3512" data-name="Grupo 3512">
            <path id="Trazado_3143" data-name="Trazado 3143" d="M133.512,199.169l-.82-3.375a72.861,72.861,0,0,1-1.773-14.927c0-5.624-3.559-10.2-7.932-10.2s-7.931,4.647-7.931,10.4a31.923,31.923,0,0,1-3.89,14.4,1.35,1.35,0,0,0,.22,1.578.768.768,0,0,0,1.227-.283,34.3,34.3,0,0,0,4.206-15.727c0-4.463,2.768-8.092,6.168-8.092s6.17,3.559,6.17,7.961a74.523,74.523,0,0,0,1.856,15.584l.814,3.362a.937.937,0,0,0,.843.8.727.727,0,0,0,.263-.05A1.22,1.22,0,0,0,133.512,199.169Z" transform="translate(-111.008 -170.667)" fill="#fe7500"/>
          </g>
        </g>
        <g id="Grupo_3515" data-name="Grupo 3515" transform="translate(23.018 53.721)">
          <g id="Grupo_3514" data-name="Grupo 3514" transform="translate(0)">
            <path id="Trazado_3144" data-name="Trazado 3144" d="M150.495,219c0-3.124-2.1-5.667-4.69-5.667s-4.69,2.543-4.69,5.71a35.685,35.685,0,0,1-5.739,18.646,1.3,1.3,0,0,0,.173,1.589.835.835,0,0,0,1.315-.209A38.522,38.522,0,0,0,142.989,219a3.153,3.153,0,0,1,2.814-3.4c1.551,0,2.814,1.525,2.816,3.425a46.617,46.617,0,0,1-7.292,24.218,1.3,1.3,0,0,0,.171,1.589.843.843,0,0,0,.572.236.886.886,0,0,0,.743-.442A49.321,49.321,0,0,0,150.495,219Z" transform="translate(-135.182 -213.334)" fill="#fe7500"/>
          </g>
        </g>
        <g id="Grupo_3517" data-name="Grupo 3517" transform="translate(32.141 57.415)">
          <g id="Grupo_3516" data-name="Grupo 3516" transform="translate(0)">
            <path id="Trazado_3145" data-name="Trazado 3145" d="M243.97,257.085a1,1,0,0,0-.977-1.081,1.073,1.073,0,0,0-.9,1.181,29.057,29.057,0,0,1-.3,4.3,1.132,1.132,0,0,0,.778,1.3.866.866,0,0,0,.15.014,1.011,1.011,0,0,0,.925-.952A30.6,30.6,0,0,0,243.97,257.085Z" transform="translate(-241.788 -256.001)" fill="#fe7500"/>
          </g>
        </g>
        <g id="Grupo_3519" data-name="Grupo 3519" transform="translate(25.559 67.353)">
          <g id="Grupo_3518" data-name="Grupo 3518" transform="translate(0)">
            <path id="Trazado_3146" data-name="Trazado 3146" d="M171.345,341.682a.925.925,0,0,0-1.167.764,42.333,42.333,0,0,1-5.795,13.3,1.3,1.3,0,0,0,.148,1.594.833.833,0,0,0,.585.247.884.884,0,0,0,.734-.426,44.8,44.8,0,0,0,6.129-14.072A1.187,1.187,0,0,0,171.345,341.682Z" transform="translate(-164.179 -341.634)" fill="#fe7500"/>
          </g>
        </g>
        <g id="Grupo_3521" data-name="Grupo 3521" transform="translate(32.9 72.471)">
          <g id="Grupo_3520" data-name="Grupo 3520">
            <path id="Trazado_3147" data-name="Trazado 3147" d="M261.734,398.309l-1.131-4.341c-.45-1.628-.87-3.348-.872-3.355a.993.993,0,0,0-.846-.811.923.923,0,0,0-.917.689,93.552,93.552,0,0,1-4.506,10.552,1.281,1.281,0,0,0,.289,1.564.817.817,0,0,0,.5.177.908.908,0,0,0,.792-.526,83.786,83.786,0,0,0,3.626-8.135c.049.181.1.365.15.546l1.124,4.32a.916.916,0,0,0,1.176.741A1.193,1.193,0,0,0,261.734,398.309Z" transform="translate(-253.314 -389.799)" fill="#fe7500"/>
          </g>
        </g>
        <path id="Trazado_3162" data-name="Trazado 3162" d="M44.835,102.868,24.848,91.123C13.237,84.315,5.986,71,6,56.5V10.133C6,6.2,8.9,3,12.473,3H77.2c3.573,0,6.469,3.2,6.473,7.133V56.5c.014,14.5-7.237,27.814-18.848,34.622ZM12.473,10.133V56.5C12.462,68.361,18.4,79.259,27.9,84.828l16.939,9.955,16.939-9.951c9.5-5.57,15.436-16.469,15.424-28.331V10.133Z" transform="translate(3.768 10.319)" fill="#fe7500"/>
        <path id="Trazado_3163" data-name="Trazado 3163" d="M24,87.621V9H51.28V53.068c0,10.532-4.849,20.21-12.616,25.176Z" transform="translate(26.973 14.149)" fill="#fe7500"/>
      </g>
      <text id="APP" transform="translate(1917.573 245.287)" fill="#fff" font-size="68" font-family="ProximaNova-Bold, Proxima Nova" font-weight="700" letter-spacing="0.025em"><tspan x="0" y="0">APP</tspan></text>
      <text id="Register" transform="translate(1682 186.731)" fill="#fff" stroke="#fff" stroke-width="2" font-size="67" font-family="ProximaNova-Bold, Proxima Nova" font-weight="700" letter-spacing="0.298em" opacity="0.299"><tspan x="0" y="0">R</tspan><tspan y="0" font-size="53">EGISTER</tspan></text>
    </g>
  </g>
</svg>
